<?xml version="1.0" standalone="no"?><!DOCTYPE svg PUBLIC "-//W3C//DTD SVG 1.1//EN" "http://www.w3.org/Graphics/SVG/1.1/DTD/svg11.dtd"><svg t="1630849477075" class="icon" viewBox="0 0 1024 1024" version="1.1" xmlns="http://www.w3.org/2000/svg" p-id="1548" xmlns:xlink="http://www.w3.org/1999/xlink" width="200" height="200"><defs><style type="text/css"></style></defs><path d="M128 96h512a64 64 0 0 1 64 64v64a64 64 0 0 1-64 64H128a64 64 0 0 1-64-64V160a64 64 0 0 1 64-64z m32 64a32 32 0 1 0 0 64h448a32 32 0 0 0 0-64H160z m224 576h512a64 64 0 0 1 64 64v64a64 64 0 0 1-64 64H384a64 64 0 0 1-64-64v-64a64 64 0 0 1 64-64z m32 64a32 32 0 0 0 0 64h448a32 32 0 0 0 0-64H416z m-32-384h512a64 64 0 0 1 64 64v64a64 64 0 0 1-64 64H384a64 64 0 0 1-64-64v-64a64 64 0 0 1 64-64z m32 64a32 32 0 0 0 0 64h448a32 32 0 0 0 0-64H416z" fill="#000000" p-id="1549"></path></svg>